<svg fill="none" xmlns="http://www.w3.org/2000/svg" viewBox="0 0 658 252"><path d="M62.308 116.488h13.224V77.772l29.493 38.716h11.397v-60.9h-13.224v37.497L74.662 55.588H62.308v60.9zm96.573 1.044c18.792 0 32.451-14.181 32.451-31.495v-.174c0-17.313-13.485-31.32-32.277-31.32s-32.451 14.182-32.451 31.494v.174c0 17.314 13.485 31.321 32.277 31.321zm.174-12.354c-10.788 0-18.444-8.7-18.444-19.14v-.174c0-10.44 7.482-18.967 18.27-18.967s18.444 8.7 18.444 19.14v.174c0 10.44-7.482 18.967-18.27 18.967zm42.422 11.31h13.224V77.772l29.493 38.716h11.397v-60.9h-13.224v37.497l-28.536-37.497h-12.354v60.9zm64.036-20.62h26.796V83.167h-26.796v12.701zm36.731 20.62h13.398v-18.27h10.179c13.659 0 24.621-7.309 24.621-21.403v-.174c0-12.44-8.787-21.054-23.316-21.054h-24.882v60.901zm13.398-30.19V67.68h10.353c6.699 0 10.875 3.22 10.875 9.222v.174c0 5.22-3.915 9.223-10.614 9.223h-10.614zm42.976 30.19h13.398V96.999h10.527l13.05 19.489h15.66l-14.877-21.75c7.743-2.871 13.05-9.049 13.05-18.88v-.174c0-5.742-1.827-10.526-5.22-13.92-4.002-4.002-10.005-6.177-17.748-6.177h-27.84v60.901zm13.398-31.32V67.68h13.311c6.525 0 10.527 2.958 10.527 8.7v.175c0 5.132-3.741 8.612-10.266 8.612h-13.572zm77.313 32.364c18.792 0 32.451-14.181 32.451-31.495v-.174c0-17.313-13.485-31.32-32.277-31.32s-32.451 14.182-32.451 31.494v.174c0 17.314 13.485 31.321 32.277 31.321zm.174-12.354c-10.788 0-18.444-8.7-18.444-19.14v-.174c0-10.44 7.482-18.967 18.27-18.967s18.444 8.7 18.444 19.14v.174c0 10.44-7.482 18.967-18.27 18.967zm42.422 11.31h13.398V92.91h29.058V80.73h-29.058V67.768h32.973v-12.18h-46.371v60.901zm55.963 0h13.398v-60.9h-13.398v60.9zm41.058 0h13.398V67.942h18.531V55.588h-50.46v12.354h18.531v48.546zm-526.638 81h13.398v-23.577h29.058v-12.18H75.706v-12.963h32.973v-12.18H62.308v60.9zm84.934 1.044c18.792 0 32.451-14.181 32.451-31.494v-.174c0-17.313-13.485-31.32-32.277-31.32s-32.451 14.181-32.451 31.494v.174c0 17.313 13.485 31.32 32.277 31.32zm.174-12.354c-10.788 0-18.444-8.7-18.444-19.14v-.174c0-10.44 7.482-18.966 18.27-18.966s18.444 8.7 18.444 19.14v.174c0 10.44-7.482 18.966-18.27 18.966zm67.826 12.267c16.356 0 26.709-9.048 26.709-27.492v-34.365h-13.398v34.887c0 9.657-4.959 14.616-13.137 14.616s-13.137-5.133-13.137-15.051v-34.452h-13.398v34.8c0 17.922 10.005 27.057 26.361 27.057zm38.616-.957h13.224v-38.715l29.493 38.715h11.397v-60.9h-13.224v37.497l-28.536-37.497h-12.354v60.9zm66.993 0h23.751c19.14 0 32.364-13.311 32.364-30.45v-.174c0-17.139-13.224-30.276-32.364-30.276h-23.751v60.9zm23.751-48.807c10.962 0 18.357 7.569 18.357 18.357v.174c0 10.788-7.395 18.183-18.357 18.183h-10.353v-36.714h10.353zm33.01 48.807h13.659l5.568-13.659h25.752l5.568 13.659h14.007l-26.1-61.335h-12.354l-26.1 61.335zm24.012-25.491l8.091-19.749 8.091 19.749h-16.182zm54.566 25.491h13.398v-48.546h18.531v-12.354h-50.46v12.354h18.531v48.546zm41.102 0h13.398v-60.9h-13.398v60.9zm56.457 1.044c18.792 0 32.451-14.181 32.451-31.494v-.174c0-17.313-13.485-31.32-32.277-31.32s-32.451 14.181-32.451 31.494v.174c0 17.313 13.485 31.32 32.277 31.32zm.174-12.354c-10.788 0-18.444-8.7-18.444-19.14v-.174c0-10.44 7.482-18.966 18.27-18.966s18.444 8.7 18.444 19.14v.174c0 10.44-7.482 18.966-18.27 18.966zm42.422 11.31h13.224v-38.715l29.493 38.715h11.397v-60.9h-13.224v37.497l-28.536-37.497h-12.354v60.9z" fill="#fff"/><path stroke="#fff" stroke-width="22" d="M11 0v252"/></svg>